# xmcd CD database file
# Copyright (C) 1993-1998 Ti Kan
#
# Track frame offsets:
#  183
#  18470
#  43845
#  56448
#  76563
#  95813
#  105673
#  123435
#  140163
#  156365
#  183958
#  198948
#  215408
#
# Disc length: 2972 seconds
#
# Revision: 1
# Processed by: cddbd v1.4b41PL1 Copyright (c) Steve Scherf et al.
# Submitted via: CDWizzard Release:4.35
#
DISCID=b20b9a0d
DTITLE=Various Artist - Conjure: music for the Texts of ISHMAEL REED
DYEAR=1900
DGENRE=
TTITLE0=jes' grew
TTITLE1=the wardrobe master of paradise (1)
TTITLE2=dualism (1)
TTITLE3=Oakland blues
TTITLE4=skydiving
TTITLE5=judas
TTITLE6=the wardrobe master of paradise (2)
TTITLE7=betty ball's blues
TTITLE8=untitled II
TTITLE9=fool-ology (the song)
TTITLE10=from the files of agent 22
TTITLE11=Dualism (2)
TTITLE12=Rhythm in philosphy
EXTD=
EXTT0=
EXTT1=
EXTT2=
EXTT3=
EXTT4=
EXTT5=
EXTT6=
EXTT7=
EXTT8=
EXTT9=
EXTT10=
EXTT11=
EXTT12=
PLAYORDER=
